<?xml version="1.0" encoding="utf-8"?>
<!-- Generator: Adobe Illustrator 15.0.0, SVG Export Plug-In . SVG Version: 6.00 Build 0)  -->
<!DOCTYPE svg PUBLIC "-//W3C//DTD SVG 1.1//EN" "http://www.w3.org/Graphics/SVG/1.1/DTD/svg11.dtd">
<svg version="1.1" id="Capa_1" xmlns="http://www.w3.org/2000/svg" xmlns:xlink="http://www.w3.org/1999/xlink" x="0px" y="0px"
	 width="858.07px" height="1026px" viewBox="0 0 858.07 1026" enable-background="new 0 0 858.07 1026" xml:space="preserve">
<g>
	<path fill-rule="evenodd" clip-rule="evenodd" fill="#8ED300" d="M73.284,335.938c0-176.985,143.47-320.457,320.457-320.457
		c176.984,0,320.457,143.472,320.457,320.457c0,176.986-143.473,320.457-320.457,320.457
		C216.754,656.396,73.284,512.925,73.284,335.938z"/>
	<path d="M716.893,151.746c95.594,66.033,115.716,130.81,105.658,146.533c-10.064,15.723-59.122,10.69-102.511-19.497
		c0,0,22.641,37.104,1.259,55.342c-21.38,18.24-74.837-5.03-102.51-26.411c0,0,0.572,29.864-42.189,14.95
		c3.407,14.43,6.097,30.003,7.957,46.748c6.686,60.15-2.166,115.286-25.604,159.45c-14.953,28.184-32.813,46.397-45.265,55.926
		c-3.677,2.799-6.695,4.769-9.097,6.059c-38.708,21.991-102.631,22.66-122.209,22.308l-0.803,0.035
		c-43.136-0.368-75.425-11.811-93.117-20.027c-84.579-44.145-100.842-127.979-103.687-166.78c-0.346-6.468-0.505-12.747-0.5-18.847
		l0.076-1.792c0.226-53.241,13.504-92.69,30.041-121.132c-20.868-20.606-37.002-38.853-46.822-50.476
		c-3.488-3.96-6.875-8.046-9.878-12.038l-0.925-1.185c-5.305-7.264-9.276-14.2-9.951-19.402
		c-2.451-18.861,44.608-70.538,122.532-98.387c77.923-27.853,123.752-12.575,128.667-0.222c4.915,12.358-18.383,38.64-53.876,51.197
		c0,0,30.871,2.322,32.535,22.271c0.352,4.23-0.976,8.521-3.515,12.723c20.852-4.621,43.441-8.879,62.543-10.737
		c2.677-0.26,5.416-0.393,8.135-0.393c10.793,0,21.813,1.948,32.722,5.931c3.684-24.845,13.031-77.469,27.772-91.26
		C523.821,74.394,621.307,85.709,716.893,151.746z"/>
	<path fill="#FFFFFF" d="M237.994,252.434c-5.042,5.497-10.178,11.794-15.178,18.965c-28.724-31.226-53.67-60.86-54.344-69.117
		c-0.141-1.767,1.377-6.18,6.137-12.803c12.972-18.057,46.648-47.232,93.606-65.345c10.829-4.286,43.991-16.324,78.107-17.963
		c4.616-0.251,18.558-0.812,23.786,1.086c6.735,2.081,4.205,7.48-3.748,14.779c-32.586,28.805-93.155,47.653-108.182,52.022
		c5.525-0.455,37.638-3.028,63.316-3.379c13.429-0.461,26.533,0.354,31.87,4.811c1.274,1.065,1.891,2.195,1.999,3.678
		c0.153,2.194-0.688,4.591-2.504,7.125c-2.612,3.635-6.919,7.188-12.137,10.539c-18.592,4.724-31.788,8.545-33.079,8.92
		C306.15,206.187,270.633,216.847,237.994,252.434z M456.275,332.405c-3.918-0.665-7.945,0.008-11.395,2.755
		c-7.729,5.95-10.44,14.703-12.487,22.54c-2.223,10.213-2.657,20.267-1.463,29.63c0.139,0.378,0.513,1.009,1.493,0.904
		c1.297-0.146,1.237-1.659,1.267-2.045c-0.786-8.821-0.083-18.248,2.223-27.615c2.019-7.356,5.185-15.496,11.378-19.887
		c2.45-1.923,5.347-2.398,8.241-1.828l-0.889,5.363c-1.489,10.076-0.224,17.536,3.769,22.164c2.065,2.393,4.831,3.913,7.937,4.47
		c3.967,0.837,7.605,0.434,10.801-0.674c7.287,26.731,3.865,59.554-11.583,84.199c-11.805,18.591-34.202,5.424-42.38-13.054
		c-9.72-18.023-13.97-39.417-14.924-60.501c-0.84-21.26,1.093-42.843,6.766-63.008c5.652-19.455,15.667-40.425,31.776-47.136
		c6.829-2.637,13.954-1.769,20.657,1.282C462.608,295.466,458.686,318.081,456.275,332.405z M559.521,384.381
		c5.836,83.818-22.646,156.805-66.717,181.685c9.197-10.015,16.347-22.175,21.728-33.864c12.332-27.142,18.903-57.188,21.399-88.02
		c2.466-30.722,1.928-67.028-8.288-105.041c-2.812-9.835-6.076-19.879-10.383-29.742l14.215-25.177l4.198,2.935
		C548.412,314.829,557.001,348.16,559.521,384.381z M534.048,333.901c0,2.661,2.155,4.82,4.815,4.82c2.662,0,4.821-2.159,4.821-4.82
		c0-2.658-2.159-4.815-4.821-4.815C536.203,329.085,534.048,331.243,534.048,333.901z M470.1,256.326
		c-8.554-3.039-18.077-3.606-28.164,0.092c-23.801,11.368-32.241,35.228-38.488,56.225c-5.679,21.853-7.195,44.47-5.859,66.762
		c1.527,22.324,6.343,44.737,17.517,64.474c5.705,9.612,13.048,19.255,24.576,24.027c11.752,5.494,26.415-1.256,32.109-10.792
		c12.787-18.705,15.11-40.313,15.105-60.15c-0.234-10.727-1.519-21.438-4.467-31.435c3.657-2.452,6.329-5.636,7.714-8.091
		l17.809-31.543c1.98,5.7,3.693,11.441,5.231,17.103c9.206,35.713,9.537,70.49,7.166,99.896
		c-2.359,29.421-8.605,57.961-19.733,82.919c-7.646,17.345-19.146,33.693-33.207,42.188c-14.813,7.332-30.878,3.013-38.678,0.038
		c-44.807-21.227-80.67-87.681-86.3-168.542c-7.038-101.104,35.855-186.444,95.805-190.618c13.686-0.954,27.08,2.406,39.681,9.364
		C475.165,230.99,472.538,243.875,470.1,256.326z M465.834,536.396c0,4.277,3.467,7.747,7.744,7.747c4.276,0,7.744-3.47,7.744-7.747
		c0-4.278-3.468-7.744-7.744-7.744C469.301,528.652,465.834,532.118,465.834,536.396z M429.254,540.81
		c0,7.024,5.697,12.725,12.724,12.725c7.03,0,12.724-5.7,12.724-12.725c0-7.031-5.693-12.726-12.724-12.726
		C434.951,528.084,429.254,533.778,429.254,540.81z M442.913,219.456c0,1.827,1.481,3.309,3.308,3.309
		c1.831,0,3.313-1.482,3.313-3.309c0-1.831-1.481-3.313-3.313-3.313C444.395,216.143,442.913,217.625,442.913,219.456z
		 M452.469,232.729c0,2.664,2.157,4.819,4.817,4.819c2.664,0,4.819-2.156,4.819-4.819c0-2.66-2.155-4.815-4.819-4.815
		C454.626,227.914,452.469,230.069,452.469,232.729z M439.184,241.587c0,3.276,2.657,5.93,5.933,5.93
		c3.277,0,5.933-2.654,5.933-5.93c0-3.276-2.655-5.932-5.933-5.932C441.841,235.655,439.184,238.311,439.184,241.587z
		 M373.909,271.798c0,3.742,3.034,6.777,6.777,6.777c3.742,0,6.777-3.036,6.777-6.777c0-3.743-3.035-6.779-6.777-6.779
		C376.943,265.02,373.909,268.055,373.909,271.798z M387.26,289.545c0,4.279,3.466,7.743,7.743,7.743
		c4.278,0,7.746-3.464,7.746-7.743c0-4.277-3.467-7.745-7.746-7.745C390.726,281.801,387.26,285.269,387.26,289.545z M366.3,310.111
		c0,7.029,5.696,12.727,12.723,12.727c7.029,0,12.725-5.698,12.725-12.727c0-7.027-5.696-12.722-12.725-12.722
		C371.996,297.389,366.3,303.083,366.3,310.111z M485.892,515.373c0-3.74-3.034-6.773-6.781-6.773c-3.742,0-6.775,3.033-6.775,6.773
		c0,3.745,3.033,6.782,6.775,6.782C482.857,522.155,485.892,519.118,485.892,515.373z M794.736,270.014
		c3.146,9.389-5.087,10.93-19.919,7.839c-59.543-13.557-130.65-67.179-147.943-80.736c5.043,5.925,38.795,40.368,57.563,67.864
		c10.632,15.581,19.493,32.106,18.779,41.845c-0.164,2.322-0.956,3.954-2.551,5.287c-2.38,1.979-5.797,2.981-10.177,2.981
		c-25.436,0.004-72.153-32.783-88.005-45.418l-18.64-14.843l8.489,22.268c2.348,6.147,4.563,17.068,1.863,20.988
		c-0.284,0.419-1.056,1.534-4.3,1.534c-5.941,0-21.249-3.913-57.124-30.113l-5.652-4.131c0,0-45.578,82.481-47.15,85.426
		c-0.727,1.364-1.976,2.66-3.512,3.466l-0.712,0.327c-1.891,0.804-3.862,0.796-5.304,0.193c-1.327-0.556-2.094-1.194-2.528-1.683
		c-0.446-0.555-0.523-0.758-0.521-0.762c-0.563-1.001-0.823-2.293-0.86-3.618c0.051-1.289,0.159-2.734,0.425-4.496
		c13.281-80.95,39.756-213.964,54.244-226.281c1.897-1.611,8.176-3.49,19.627-3.49c31.214,0,92.073,14.496,151.19,53.202
		c13.761,8.837,54.651,36.784,84.471,74.343C780.553,247.063,792.619,262.5,794.736,270.014z M256.965,269.789
		c26.753-29.204,55.478-38.308,57.868-39.025c0.557-0.162,42.1-12.183,83.079-20.236c-13.538,10.139-24.416,22.246-33.146,35.41
		C341.992,250.95,288.096,262.822,256.965,269.789z M224.99,321.563c5.388-13.685,11.893-25.424,18.913-35.469
		c17.86-4.065,69.995-15.597,111.858-24.817c-6.131,11.819-10.832,24.155-14.419,36.441
		C315.933,302.892,254.021,315.509,224.99,321.563z M212.553,370.353c1.703-12.516,4.25-23.963,7.438-34.423
		c19.148-4.036,74.96-15.454,117.705-24.16c-2.591,11.33-4.32,22.425-5.444,32.822C306.67,350.059,238.158,364.707,212.553,370.353z
		 M216.789,470.305c-1.901-8.044-3.421-16.572-4.502-25.612c-2.453-22.413-2.685-42.568-1.212-60.678
		c16.952-3.775,76.464-16.542,120.004-25.849c-1.901,29.228,0.672,50.201,0.672,50.201c0.331,4.414,0.806,9.018,1.373,13.704
		c1.933,15.259,5.058,29.971,9.242,43.9c-0.165,4.049-1.761,6.432-5.737,6.432c-6.637,0-7.745-15.493-9.957-25.451
		c-2.213-9.962-5.533-27.664-6.638-36.517c-1.108-8.854-1.108-12.171-11.068-9.957c-9.96,2.213-34.302,6.64-56.433,12.17
		c-22.13,5.532-30.983,7.746-30.983,15.495c0,34.3,9.96,44.26,3.318,48.686C221.113,479.329,218.421,474.752,216.789,470.305z"/>
	<path d="M648.843,696.701h65.491v170.928h-65.491v-63.467h-42.478v63.467h-65.491V696.701h65.491v61.443h42.478V696.701z
		 M441.05,745.5c0,12.392,81.67,4.301,81.67,64.729c0,41.977-29.331,60.688-74.335,60.688c-30.597,0-51.836-5.309-71.057-12.894
		l10.369-46.271c16.185,7.834,32.112,13.905,56.387,13.905c10.874,0,14.16-2.781,14.16-6.32c0-12.644-80.916-2.276-80.41-67.009
		c0.256-38.18,29.331-58.913,72.826-58.913c24.02,0,46.524,4.299,65.488,9.861l-10.365,46.019
		c-11.128-5.062-30.599-10.111-50.575-10.111C446.611,739.184,441.05,740.442,441.05,745.5z M293.731,696.701h65.998v103.417
		c0,48.552-30.849,70.799-82.684,70.799c-51.835,0-82.43-22.247-82.43-70.799V696.701h65.995v102.658
		c0,12.137,2.53,21.239,16.436,21.239c14.159,0,16.687-9.357,16.687-21.239V696.701z M94.835,745.5
		c0,12.392,81.672,4.301,81.672,64.729c0,41.977-29.332,60.688-74.337,60.688c-30.596,0-51.837-5.309-71.055-12.894l10.368-46.271
		c16.184,7.834,32.112,13.905,56.388,13.905c10.874,0,14.16-2.781,14.16-6.32c0-12.644-80.916-2.276-80.409-67.009
		c0.254-38.18,29.329-58.913,72.825-58.913c24.021,0,46.522,4.299,65.484,9.861l-10.362,46.019
		c-11.127-5.062-30.596-10.111-50.574-10.111C100.398,739.184,94.835,740.442,94.835,745.5z M805.076,696.701v170.928h-65.993
		V696.701H805.076z"/>
	<path fill="#8ED300" d="M648.676,928.135c0,8.137,53.649,2.822,53.649,42.521c0,27.571-19.267,39.864-48.832,39.864
		c-20.098,0-34.048-3.489-46.674-8.471l6.811-30.397c10.63,5.147,21.093,9.136,37.042,9.136c7.142,0,9.301-1.827,9.301-4.152
		c0-8.307-53.153-1.496-52.82-44.015c0.167-25.082,19.267-38.701,47.837-38.701c15.777,0,30.56,2.824,43.015,6.481l-6.809,30.225
		c-7.306-3.321-20.094-6.642-33.22-6.642C652.329,923.983,648.676,924.813,648.676,928.135z M595.26,927.637h-50.496v9.802h44.182
		v29.229h-44.182v10.299h50.496v31.392h-92.684V896.079h92.684V927.637z M427.583,947.068c7.139,0,19.764-1.662,19.764-11.624
		c0-9.303-11.294-11.299-18.603-11.299c-1.992,0-3.653,0.169-4.982,0.336v22.425C424.927,947.068,426.09,947.068,427.583,947.068z
		 M468.775,962.183c9.469,1.829,18.604,12.126,23.252,46.175h-43.017c-6.809-35.214-12.126-35.044-25.081-35.044v35.044h-41.69
		V897.239c9.633-1.66,28.235-3.32,43.184-3.32c32.222,0,63.951,7.805,63.951,39.033C489.374,950.39,477.913,958.031,468.775,962.183
		z M306.565,925.646v23.751c6.811,0.494,21.425-0.333,21.425-12.126C327.99,926.142,312.71,924.813,306.565,925.646z
		 M304.738,893.919c29.399,0,65.608,9.466,65.608,43.684c0,33.053-34.214,44.18-63.449,41.854v28.9h-42.519V896.576
		C271.851,895.417,285.639,893.919,304.738,893.919z M131.765,896.079h44.846l15.945,31.558l15.778-31.558h45.179l-31.391,54.143
		l33.051,58.136h-44.844l-17.772-34.214l-17.773,34.214h-44.847l32.887-58.136L131.765,896.079z M123.793,927.637H73.299v9.802
		h44.182v29.229H73.299v10.299h50.494v31.392H31.114V896.079h92.679V927.637z M751.423,928.135c0,8.137,53.646,2.822,53.646,42.521
		c0,27.571-19.264,39.864-48.827,39.864c-20.099,0-34.053-3.489-46.674-8.471l6.811-30.397c10.632,5.147,21.094,9.136,37.039,9.136
		c7.142,0,9.302-1.827,9.302-4.152c0-8.307-53.151-1.496-52.82-44.015c0.168-25.082,19.267-38.701,47.839-38.701
		c15.777,0,30.557,2.824,43.016,6.481l-6.809,30.225c-7.311-3.321-20.098-6.642-33.219-6.642
		C755.08,923.983,751.423,924.813,751.423,928.135z"/>
</g>
</svg>
